G04 #@! TF.GenerationSoftware,KiCad,Pcbnew,(5.1.2)-2*
G04 #@! TF.CreationDate,2019-10-19T20:06:55+02:00*
G04 #@! TF.ProjectId,PlayStation 1 Reset Mod,506c6179-5374-4617-9469-6f6e20312052,rev?*
G04 #@! TF.SameCoordinates,Original*
G04 #@! TF.FileFunction,Legend,Bot*
G04 #@! TF.FilePolarity,Positive*
%FSLAX46Y46*%
G04 Gerber Fmt 4.6, Leading zero omitted, Abs format (unit mm)*
G04 Created by KiCad (PCBNEW (5.1.2)-2) date 2019-10-19 20:06:55*
%MOMM*%
%LPD*%
G04 APERTURE LIST*
%ADD10C,0.187500*%
%ADD11C,0.120000*%
%ADD12C,0.150000*%
G04 APERTURE END LIST*
D10*
X137260400Y-85439285D02*
X137260400Y-84689285D01*
X136974685Y-84689285D01*
X136903257Y-84725000D01*
X136867542Y-84760714D01*
X136831828Y-84832142D01*
X136831828Y-84939285D01*
X136867542Y-85010714D01*
X136903257Y-85046428D01*
X136974685Y-85082142D01*
X137260400Y-85082142D01*
X136546114Y-85403571D02*
X136438971Y-85439285D01*
X136260400Y-85439285D01*
X136188971Y-85403571D01*
X136153257Y-85367857D01*
X136117542Y-85296428D01*
X136117542Y-85225000D01*
X136153257Y-85153571D01*
X136188971Y-85117857D01*
X136260400Y-85082142D01*
X136403257Y-85046428D01*
X136474685Y-85010714D01*
X136510400Y-84975000D01*
X136546114Y-84903571D01*
X136546114Y-84832142D01*
X136510400Y-84760714D01*
X136474685Y-84725000D01*
X136403257Y-84689285D01*
X136224685Y-84689285D01*
X136117542Y-84725000D01*
X135403257Y-85439285D02*
X135831828Y-85439285D01*
X135617542Y-85439285D02*
X135617542Y-84689285D01*
X135688971Y-84796428D01*
X135760400Y-84867857D01*
X135831828Y-84903571D01*
X134081828Y-85439285D02*
X134331828Y-85082142D01*
X134510400Y-85439285D02*
X134510400Y-84689285D01*
X134224685Y-84689285D01*
X134153257Y-84725000D01*
X134117542Y-84760714D01*
X134081828Y-84832142D01*
X134081828Y-84939285D01*
X134117542Y-85010714D01*
X134153257Y-85046428D01*
X134224685Y-85082142D01*
X134510400Y-85082142D01*
X133474685Y-85403571D02*
X133546114Y-85439285D01*
X133688971Y-85439285D01*
X133760400Y-85403571D01*
X133796114Y-85332142D01*
X133796114Y-85046428D01*
X133760400Y-84975000D01*
X133688971Y-84939285D01*
X133546114Y-84939285D01*
X133474685Y-84975000D01*
X133438971Y-85046428D01*
X133438971Y-85117857D01*
X133796114Y-85189285D01*
X133153257Y-85403571D02*
X133081828Y-85439285D01*
X132938971Y-85439285D01*
X132867542Y-85403571D01*
X132831828Y-85332142D01*
X132831828Y-85296428D01*
X132867542Y-85225000D01*
X132938971Y-85189285D01*
X133046114Y-85189285D01*
X133117542Y-85153571D01*
X133153257Y-85082142D01*
X133153257Y-85046428D01*
X133117542Y-84975000D01*
X133046114Y-84939285D01*
X132938971Y-84939285D01*
X132867542Y-84975000D01*
X132224685Y-85403571D02*
X132296114Y-85439285D01*
X132438971Y-85439285D01*
X132510400Y-85403571D01*
X132546114Y-85332142D01*
X132546114Y-85046428D01*
X132510400Y-84975000D01*
X132438971Y-84939285D01*
X132296114Y-84939285D01*
X132224685Y-84975000D01*
X132188971Y-85046428D01*
X132188971Y-85117857D01*
X132546114Y-85189285D01*
X131974685Y-84939285D02*
X131688971Y-84939285D01*
X131867542Y-84689285D02*
X131867542Y-85332142D01*
X131831828Y-85403571D01*
X131760400Y-85439285D01*
X131688971Y-85439285D01*
X130867542Y-85439285D02*
X130867542Y-84689285D01*
X130617542Y-85225000D01*
X130367542Y-84689285D01*
X130367542Y-85439285D01*
X129903257Y-85439285D02*
X129974685Y-85403571D01*
X130010400Y-85367857D01*
X130046114Y-85296428D01*
X130046114Y-85082142D01*
X130010400Y-85010714D01*
X129974685Y-84975000D01*
X129903257Y-84939285D01*
X129796114Y-84939285D01*
X129724685Y-84975000D01*
X129688971Y-85010714D01*
X129653257Y-85082142D01*
X129653257Y-85296428D01*
X129688971Y-85367857D01*
X129724685Y-85403571D01*
X129796114Y-85439285D01*
X129903257Y-85439285D01*
X129010400Y-85439285D02*
X129010400Y-84689285D01*
X129010400Y-85403571D02*
X129081828Y-85439285D01*
X129224685Y-85439285D01*
X129296114Y-85403571D01*
X129331828Y-85367857D01*
X129367542Y-85296428D01*
X129367542Y-85082142D01*
X129331828Y-85010714D01*
X129296114Y-84975000D01*
X129224685Y-84939285D01*
X129081828Y-84939285D01*
X129010400Y-84975000D01*
X139189285Y-85037142D02*
X139796428Y-85037142D01*
X139867857Y-85001428D01*
X139903571Y-84965714D01*
X139939285Y-84894285D01*
X139939285Y-84787142D01*
X139903571Y-84715714D01*
X139653571Y-85037142D02*
X139689285Y-84965714D01*
X139689285Y-84822857D01*
X139653571Y-84751428D01*
X139617857Y-84715714D01*
X139546428Y-84680000D01*
X139332142Y-84680000D01*
X139260714Y-84715714D01*
X139225000Y-84751428D01*
X139189285Y-84822857D01*
X139189285Y-84965714D01*
X139225000Y-85037142D01*
X139689285Y-85394285D02*
X139189285Y-85394285D01*
X138939285Y-85394285D02*
X138975000Y-85358571D01*
X139010714Y-85394285D01*
X138975000Y-85430000D01*
X138939285Y-85394285D01*
X139010714Y-85394285D01*
X139189285Y-85644285D02*
X139189285Y-85930000D01*
X138939285Y-85751428D02*
X139582142Y-85751428D01*
X139653571Y-85787142D01*
X139689285Y-85858571D01*
X139689285Y-85930000D01*
X139689285Y-86180000D02*
X138939285Y-86180000D01*
X139689285Y-86501428D02*
X139296428Y-86501428D01*
X139225000Y-86465714D01*
X139189285Y-86394285D01*
X139189285Y-86287142D01*
X139225000Y-86215714D01*
X139260714Y-86180000D01*
X139189285Y-87180000D02*
X139689285Y-87180000D01*
X139189285Y-86858571D02*
X139582142Y-86858571D01*
X139653571Y-86894285D01*
X139689285Y-86965714D01*
X139689285Y-87072857D01*
X139653571Y-87144285D01*
X139617857Y-87180000D01*
X139689285Y-87537142D02*
X138939285Y-87537142D01*
X139225000Y-87537142D02*
X139189285Y-87608571D01*
X139189285Y-87751428D01*
X139225000Y-87822857D01*
X139260714Y-87858571D01*
X139332142Y-87894285D01*
X139546428Y-87894285D01*
X139617857Y-87858571D01*
X139653571Y-87822857D01*
X139689285Y-87751428D01*
X139689285Y-87608571D01*
X139653571Y-87537142D01*
X139617857Y-88215714D02*
X139653571Y-88251428D01*
X139689285Y-88215714D01*
X139653571Y-88180000D01*
X139617857Y-88215714D01*
X139689285Y-88215714D01*
X139653571Y-88894285D02*
X139689285Y-88822857D01*
X139689285Y-88680000D01*
X139653571Y-88608571D01*
X139617857Y-88572857D01*
X139546428Y-88537142D01*
X139332142Y-88537142D01*
X139260714Y-88572857D01*
X139225000Y-88608571D01*
X139189285Y-88680000D01*
X139189285Y-88822857D01*
X139225000Y-88894285D01*
X139689285Y-89322857D02*
X139653571Y-89251428D01*
X139617857Y-89215714D01*
X139546428Y-89180000D01*
X139332142Y-89180000D01*
X139260714Y-89215714D01*
X139225000Y-89251428D01*
X139189285Y-89322857D01*
X139189285Y-89430000D01*
X139225000Y-89501428D01*
X139260714Y-89537142D01*
X139332142Y-89572857D01*
X139546428Y-89572857D01*
X139617857Y-89537142D01*
X139653571Y-89501428D01*
X139689285Y-89430000D01*
X139689285Y-89322857D01*
X139689285Y-89894285D02*
X139189285Y-89894285D01*
X139260714Y-89894285D02*
X139225000Y-89930000D01*
X139189285Y-90001428D01*
X139189285Y-90108571D01*
X139225000Y-90180000D01*
X139296428Y-90215714D01*
X139689285Y-90215714D01*
X139296428Y-90215714D02*
X139225000Y-90251428D01*
X139189285Y-90322857D01*
X139189285Y-90430000D01*
X139225000Y-90501428D01*
X139296428Y-90537142D01*
X139689285Y-90537142D01*
X138903571Y-91430000D02*
X139867857Y-90787142D01*
X139189285Y-91680000D02*
X139939285Y-91680000D01*
X139225000Y-91680000D02*
X139189285Y-91751428D01*
X139189285Y-91894285D01*
X139225000Y-91965714D01*
X139260714Y-92001428D01*
X139332142Y-92037142D01*
X139546428Y-92037142D01*
X139617857Y-92001428D01*
X139653571Y-91965714D01*
X139689285Y-91894285D01*
X139689285Y-91751428D01*
X139653571Y-91680000D01*
X139189285Y-92287142D02*
X139689285Y-92465714D01*
X139189285Y-92644285D02*
X139689285Y-92465714D01*
X139867857Y-92394285D01*
X139903571Y-92358571D01*
X139939285Y-92287142D01*
X139689285Y-92930000D02*
X139189285Y-92930000D01*
X139332142Y-92930000D02*
X139260714Y-92965714D01*
X139225000Y-93001428D01*
X139189285Y-93072857D01*
X139189285Y-93144285D01*
X139689285Y-93501428D02*
X139653571Y-93430000D01*
X139617857Y-93394285D01*
X139546428Y-93358571D01*
X139332142Y-93358571D01*
X139260714Y-93394285D01*
X139225000Y-93430000D01*
X139189285Y-93501428D01*
X139189285Y-93608571D01*
X139225000Y-93680000D01*
X139260714Y-93715714D01*
X139332142Y-93751428D01*
X139546428Y-93751428D01*
X139617857Y-93715714D01*
X139653571Y-93680000D01*
X139689285Y-93608571D01*
X139689285Y-93501428D01*
X139653571Y-94358571D02*
X139689285Y-94287142D01*
X139689285Y-94144285D01*
X139653571Y-94072857D01*
X139582142Y-94037142D01*
X139296428Y-94037142D01*
X139225000Y-94072857D01*
X139189285Y-94144285D01*
X139189285Y-94287142D01*
X139225000Y-94358571D01*
X139296428Y-94394285D01*
X139367857Y-94394285D01*
X139439285Y-94037142D01*
X139653571Y-94680000D02*
X139689285Y-94751428D01*
X139689285Y-94894285D01*
X139653571Y-94965714D01*
X139582142Y-95001428D01*
X139546428Y-95001428D01*
X139475000Y-94965714D01*
X139439285Y-94894285D01*
X139439285Y-94787142D01*
X139403571Y-94715714D01*
X139332142Y-94680000D01*
X139296428Y-94680000D01*
X139225000Y-94715714D01*
X139189285Y-94787142D01*
X139189285Y-94894285D01*
X139225000Y-94965714D01*
X139189285Y-95322857D02*
X139939285Y-95322857D01*
X139225000Y-95322857D02*
X139189285Y-95394285D01*
X139189285Y-95537142D01*
X139225000Y-95608571D01*
X139260714Y-95644285D01*
X139332142Y-95680000D01*
X139546428Y-95680000D01*
X139617857Y-95644285D01*
X139653571Y-95608571D01*
X139689285Y-95537142D01*
X139689285Y-95394285D01*
X139653571Y-95322857D01*
D11*
X128649000Y-94490000D02*
X128649000Y-95890000D01*
X130049000Y-94490000D02*
X128649000Y-94490000D01*
X130049000Y-95890000D02*
X130049000Y-94490000D01*
X128649000Y-95890000D02*
X130049000Y-95890000D01*
X128017000Y-95190000D02*
G75*
G03X128017000Y-95190000I-700000J0D01*
G01*
X132081000Y-95190000D02*
G75*
G03X132081000Y-95190000I-700000J0D01*
G01*
X134113000Y-95190000D02*
G75*
G03X134113000Y-95190000I-700000J0D01*
G01*
X136145000Y-95190000D02*
G75*
G03X136145000Y-95190000I-700000J0D01*
G01*
D12*
X128938285Y-92285000D02*
X129688285Y-92535000D01*
X128938285Y-92785000D01*
X129688285Y-93035000D02*
X128938285Y-93035000D01*
X128938285Y-93213571D01*
X128974000Y-93320714D01*
X129045428Y-93392142D01*
X129116857Y-93427857D01*
X129259714Y-93463571D01*
X129366857Y-93463571D01*
X129509714Y-93427857D01*
X129581142Y-93392142D01*
X129652571Y-93320714D01*
X129688285Y-93213571D01*
X129688285Y-93035000D01*
X129688285Y-93785000D02*
X128938285Y-93785000D01*
X128938285Y-93963571D01*
X128974000Y-94070714D01*
X129045428Y-94142142D01*
X129116857Y-94177857D01*
X129259714Y-94213571D01*
X129366857Y-94213571D01*
X129509714Y-94177857D01*
X129581142Y-94142142D01*
X129652571Y-94070714D01*
X129688285Y-93963571D01*
X129688285Y-93785000D01*
X126906285Y-88505000D02*
X127656285Y-88755000D01*
X126906285Y-89005000D01*
X127656285Y-89255000D02*
X126906285Y-89255000D01*
X126906285Y-89540714D01*
X126942000Y-89612142D01*
X126977714Y-89647857D01*
X127049142Y-89683571D01*
X127156285Y-89683571D01*
X127227714Y-89647857D01*
X127263428Y-89612142D01*
X127299142Y-89540714D01*
X127299142Y-89255000D01*
X127656285Y-90005000D02*
X126906285Y-90005000D01*
X126906285Y-90290714D01*
X126942000Y-90362142D01*
X126977714Y-90397857D01*
X127049142Y-90433571D01*
X127156285Y-90433571D01*
X127227714Y-90397857D01*
X127263428Y-90362142D01*
X127299142Y-90290714D01*
X127299142Y-90005000D01*
X126870571Y-91290714D02*
X127834857Y-90647857D01*
X126582000Y-91362142D02*
X126582000Y-92219285D01*
X127656285Y-91540714D02*
X126906285Y-91540714D01*
X127442000Y-91790714D01*
X126906285Y-92040714D01*
X127656285Y-92040714D01*
X126582000Y-92219285D02*
X126582000Y-92969285D01*
X127584857Y-92826428D02*
X127620571Y-92790714D01*
X127656285Y-92683571D01*
X127656285Y-92612142D01*
X127620571Y-92505000D01*
X127549142Y-92433571D01*
X127477714Y-92397857D01*
X127334857Y-92362142D01*
X127227714Y-92362142D01*
X127084857Y-92397857D01*
X127013428Y-92433571D01*
X126942000Y-92505000D01*
X126906285Y-92612142D01*
X126906285Y-92683571D01*
X126942000Y-92790714D01*
X126977714Y-92826428D01*
X126582000Y-92969285D02*
X126582000Y-93576428D01*
X127656285Y-93505000D02*
X127656285Y-93147857D01*
X126906285Y-93147857D01*
X126582000Y-93576428D02*
X126582000Y-94326428D01*
X127656285Y-94183571D02*
X127299142Y-93933571D01*
X127656285Y-93755000D02*
X126906285Y-93755000D01*
X126906285Y-94040714D01*
X126942000Y-94112142D01*
X126977714Y-94147857D01*
X127049142Y-94183571D01*
X127156285Y-94183571D01*
X127227714Y-94147857D01*
X127263428Y-94112142D01*
X127299142Y-94040714D01*
X127299142Y-93755000D01*
X130970285Y-92320714D02*
X131720285Y-92570714D01*
X130970285Y-92820714D01*
X131684571Y-93035000D02*
X131720285Y-93142142D01*
X131720285Y-93320714D01*
X131684571Y-93392142D01*
X131648857Y-93427857D01*
X131577428Y-93463571D01*
X131506000Y-93463571D01*
X131434571Y-93427857D01*
X131398857Y-93392142D01*
X131363142Y-93320714D01*
X131327428Y-93177857D01*
X131291714Y-93106428D01*
X131256000Y-93070714D01*
X131184571Y-93035000D01*
X131113142Y-93035000D01*
X131041714Y-93070714D01*
X131006000Y-93106428D01*
X130970285Y-93177857D01*
X130970285Y-93356428D01*
X131006000Y-93463571D01*
X131684571Y-93749285D02*
X131720285Y-93856428D01*
X131720285Y-94035000D01*
X131684571Y-94106428D01*
X131648857Y-94142142D01*
X131577428Y-94177857D01*
X131506000Y-94177857D01*
X131434571Y-94142142D01*
X131398857Y-94106428D01*
X131363142Y-94035000D01*
X131327428Y-93892142D01*
X131291714Y-93820714D01*
X131256000Y-93785000D01*
X131184571Y-93749285D01*
X131113142Y-93749285D01*
X131041714Y-93785000D01*
X131006000Y-93820714D01*
X130970285Y-93892142D01*
X130970285Y-94070714D01*
X131006000Y-94177857D01*
X133752285Y-90052714D02*
X133002285Y-90052714D01*
X133680857Y-90838428D02*
X133716571Y-90802714D01*
X133752285Y-90695571D01*
X133752285Y-90624142D01*
X133716571Y-90517000D01*
X133645142Y-90445571D01*
X133573714Y-90409857D01*
X133430857Y-90374142D01*
X133323714Y-90374142D01*
X133180857Y-90409857D01*
X133109428Y-90445571D01*
X133038000Y-90517000D01*
X133002285Y-90624142D01*
X133002285Y-90695571D01*
X133038000Y-90802714D01*
X133073714Y-90838428D01*
X133716571Y-91124142D02*
X133752285Y-91231285D01*
X133752285Y-91409857D01*
X133716571Y-91481285D01*
X133680857Y-91517000D01*
X133609428Y-91552714D01*
X133538000Y-91552714D01*
X133466571Y-91517000D01*
X133430857Y-91481285D01*
X133395142Y-91409857D01*
X133359428Y-91267000D01*
X133323714Y-91195571D01*
X133288000Y-91159857D01*
X133216571Y-91124142D01*
X133145142Y-91124142D01*
X133073714Y-91159857D01*
X133038000Y-91195571D01*
X133002285Y-91267000D01*
X133002285Y-91445571D01*
X133038000Y-91552714D01*
X133752285Y-91874142D02*
X133002285Y-91874142D01*
X133002285Y-92159857D01*
X133038000Y-92231285D01*
X133073714Y-92267000D01*
X133145142Y-92302714D01*
X133252285Y-92302714D01*
X133323714Y-92267000D01*
X133359428Y-92231285D01*
X133395142Y-92159857D01*
X133395142Y-91874142D01*
X133752285Y-92624142D02*
X133002285Y-92624142D01*
X133002285Y-92802714D01*
X133038000Y-92909857D01*
X133109428Y-92981285D01*
X133180857Y-93017000D01*
X133323714Y-93052714D01*
X133430857Y-93052714D01*
X133573714Y-93017000D01*
X133645142Y-92981285D01*
X133716571Y-92909857D01*
X133752285Y-92802714D01*
X133752285Y-92624142D01*
X133538000Y-93338428D02*
X133538000Y-93695571D01*
X133752285Y-93267000D02*
X133002285Y-93517000D01*
X133752285Y-93767000D01*
X133002285Y-93909857D02*
X133002285Y-94338428D01*
X133752285Y-94124142D02*
X133002285Y-94124142D01*
X135784285Y-89981285D02*
X135034285Y-89981285D01*
X135712857Y-90767000D02*
X135748571Y-90731285D01*
X135784285Y-90624142D01*
X135784285Y-90552714D01*
X135748571Y-90445571D01*
X135677142Y-90374142D01*
X135605714Y-90338428D01*
X135462857Y-90302714D01*
X135355714Y-90302714D01*
X135212857Y-90338428D01*
X135141428Y-90374142D01*
X135070000Y-90445571D01*
X135034285Y-90552714D01*
X135034285Y-90624142D01*
X135070000Y-90731285D01*
X135105714Y-90767000D01*
X135748571Y-91052714D02*
X135784285Y-91159857D01*
X135784285Y-91338428D01*
X135748571Y-91409857D01*
X135712857Y-91445571D01*
X135641428Y-91481285D01*
X135570000Y-91481285D01*
X135498571Y-91445571D01*
X135462857Y-91409857D01*
X135427142Y-91338428D01*
X135391428Y-91195571D01*
X135355714Y-91124142D01*
X135320000Y-91088428D01*
X135248571Y-91052714D01*
X135177142Y-91052714D01*
X135105714Y-91088428D01*
X135070000Y-91124142D01*
X135034285Y-91195571D01*
X135034285Y-91374142D01*
X135070000Y-91481285D01*
X135784285Y-91802714D02*
X135034285Y-91802714D01*
X135034285Y-92088428D01*
X135070000Y-92159857D01*
X135105714Y-92195571D01*
X135177142Y-92231285D01*
X135284285Y-92231285D01*
X135355714Y-92195571D01*
X135391428Y-92159857D01*
X135427142Y-92088428D01*
X135427142Y-91802714D01*
X135712857Y-92981285D02*
X135748571Y-92945571D01*
X135784285Y-92838428D01*
X135784285Y-92767000D01*
X135748571Y-92659857D01*
X135677142Y-92588428D01*
X135605714Y-92552714D01*
X135462857Y-92517000D01*
X135355714Y-92517000D01*
X135212857Y-92552714D01*
X135141428Y-92588428D01*
X135070000Y-92659857D01*
X135034285Y-92767000D01*
X135034285Y-92838428D01*
X135070000Y-92945571D01*
X135105714Y-92981285D01*
X135784285Y-93659857D02*
X135784285Y-93302714D01*
X135034285Y-93302714D01*
X135784285Y-93909857D02*
X135034285Y-93909857D01*
X135784285Y-94338428D02*
X135355714Y-94017000D01*
X135034285Y-94338428D02*
X135462857Y-93909857D01*
M02*
