G04 #@! TF.GenerationSoftware,KiCad,Pcbnew,(5.1.2)-2*
G04 #@! TF.CreationDate,2019-10-19T20:06:56+02:00*
G04 #@! TF.ProjectId,PlayStation 1 Reset Mod,506c6179-5374-4617-9469-6f6e20312052,rev?*
G04 #@! TF.SameCoordinates,Original*
G04 #@! TF.FileFunction,Soldermask,Bot*
G04 #@! TF.FilePolarity,Negative*
%FSLAX46Y46*%
G04 Gerber Fmt 4.6, Leading zero omitted, Abs format (unit mm)*
G04 Created by KiCad (PCBNEW (5.1.2)-2) date 2019-10-19 20:06:56*
%MOMM*%
%LPD*%
G04 APERTURE LIST*
%ADD10C,0.100000*%
G04 APERTURE END LIST*
D10*
G36*
X135605721Y-94660174D02*
G01*
X135705995Y-94701709D01*
X135705996Y-94701710D01*
X135796242Y-94762010D01*
X135872990Y-94838758D01*
X135872991Y-94838760D01*
X135933291Y-94929005D01*
X135974826Y-95029279D01*
X135996000Y-95135730D01*
X135996000Y-95244270D01*
X135974826Y-95350721D01*
X135933291Y-95450995D01*
X135933290Y-95450996D01*
X135872990Y-95541242D01*
X135796242Y-95617990D01*
X135750812Y-95648345D01*
X135705995Y-95678291D01*
X135605721Y-95719826D01*
X135499270Y-95741000D01*
X135390730Y-95741000D01*
X135284279Y-95719826D01*
X135184005Y-95678291D01*
X135139188Y-95648345D01*
X135093758Y-95617990D01*
X135017010Y-95541242D01*
X134956710Y-95450996D01*
X134956709Y-95450995D01*
X134915174Y-95350721D01*
X134894000Y-95244270D01*
X134894000Y-95135730D01*
X134915174Y-95029279D01*
X134956709Y-94929005D01*
X135017009Y-94838760D01*
X135017010Y-94838758D01*
X135093758Y-94762010D01*
X135184004Y-94701710D01*
X135184005Y-94701709D01*
X135284279Y-94660174D01*
X135390730Y-94639000D01*
X135499270Y-94639000D01*
X135605721Y-94660174D01*
X135605721Y-94660174D01*
G37*
G36*
X133573721Y-94660174D02*
G01*
X133673995Y-94701709D01*
X133673996Y-94701710D01*
X133764242Y-94762010D01*
X133840990Y-94838758D01*
X133840991Y-94838760D01*
X133901291Y-94929005D01*
X133942826Y-95029279D01*
X133964000Y-95135730D01*
X133964000Y-95244270D01*
X133942826Y-95350721D01*
X133901291Y-95450995D01*
X133901290Y-95450996D01*
X133840990Y-95541242D01*
X133764242Y-95617990D01*
X133718812Y-95648345D01*
X133673995Y-95678291D01*
X133573721Y-95719826D01*
X133467270Y-95741000D01*
X133358730Y-95741000D01*
X133252279Y-95719826D01*
X133152005Y-95678291D01*
X133107188Y-95648345D01*
X133061758Y-95617990D01*
X132985010Y-95541242D01*
X132924710Y-95450996D01*
X132924709Y-95450995D01*
X132883174Y-95350721D01*
X132862000Y-95244270D01*
X132862000Y-95135730D01*
X132883174Y-95029279D01*
X132924709Y-94929005D01*
X132985009Y-94838760D01*
X132985010Y-94838758D01*
X133061758Y-94762010D01*
X133152004Y-94701710D01*
X133152005Y-94701709D01*
X133252279Y-94660174D01*
X133358730Y-94639000D01*
X133467270Y-94639000D01*
X133573721Y-94660174D01*
X133573721Y-94660174D01*
G37*
G36*
X131541721Y-94660174D02*
G01*
X131641995Y-94701709D01*
X131641996Y-94701710D01*
X131732242Y-94762010D01*
X131808990Y-94838758D01*
X131808991Y-94838760D01*
X131869291Y-94929005D01*
X131910826Y-95029279D01*
X131932000Y-95135730D01*
X131932000Y-95244270D01*
X131910826Y-95350721D01*
X131869291Y-95450995D01*
X131869290Y-95450996D01*
X131808990Y-95541242D01*
X131732242Y-95617990D01*
X131686812Y-95648345D01*
X131641995Y-95678291D01*
X131541721Y-95719826D01*
X131435270Y-95741000D01*
X131326730Y-95741000D01*
X131220279Y-95719826D01*
X131120005Y-95678291D01*
X131075188Y-95648345D01*
X131029758Y-95617990D01*
X130953010Y-95541242D01*
X130892710Y-95450996D01*
X130892709Y-95450995D01*
X130851174Y-95350721D01*
X130830000Y-95244270D01*
X130830000Y-95135730D01*
X130851174Y-95029279D01*
X130892709Y-94929005D01*
X130953009Y-94838760D01*
X130953010Y-94838758D01*
X131029758Y-94762010D01*
X131120004Y-94701710D01*
X131120005Y-94701709D01*
X131220279Y-94660174D01*
X131326730Y-94639000D01*
X131435270Y-94639000D01*
X131541721Y-94660174D01*
X131541721Y-94660174D01*
G37*
G36*
X129900000Y-95741000D02*
G01*
X128798000Y-95741000D01*
X128798000Y-94639000D01*
X129900000Y-94639000D01*
X129900000Y-95741000D01*
X129900000Y-95741000D01*
G37*
G36*
X127477721Y-94660174D02*
G01*
X127577995Y-94701709D01*
X127577996Y-94701710D01*
X127668242Y-94762010D01*
X127744990Y-94838758D01*
X127744991Y-94838760D01*
X127805291Y-94929005D01*
X127846826Y-95029279D01*
X127868000Y-95135730D01*
X127868000Y-95244270D01*
X127846826Y-95350721D01*
X127805291Y-95450995D01*
X127805290Y-95450996D01*
X127744990Y-95541242D01*
X127668242Y-95617990D01*
X127622812Y-95648345D01*
X127577995Y-95678291D01*
X127477721Y-95719826D01*
X127371270Y-95741000D01*
X127262730Y-95741000D01*
X127156279Y-95719826D01*
X127056005Y-95678291D01*
X127011188Y-95648345D01*
X126965758Y-95617990D01*
X126889010Y-95541242D01*
X126828710Y-95450996D01*
X126828709Y-95450995D01*
X126787174Y-95350721D01*
X126766000Y-95244270D01*
X126766000Y-95135730D01*
X126787174Y-95029279D01*
X126828709Y-94929005D01*
X126889009Y-94838760D01*
X126889010Y-94838758D01*
X126965758Y-94762010D01*
X127056004Y-94701710D01*
X127056005Y-94701709D01*
X127156279Y-94660174D01*
X127262730Y-94639000D01*
X127371270Y-94639000D01*
X127477721Y-94660174D01*
X127477721Y-94660174D01*
G37*
M02*
