G04 #@! TF.GenerationSoftware,KiCad,Pcbnew,(5.1.2)-2*
G04 #@! TF.CreationDate,2019-10-19T23:40:14+02:00*
G04 #@! TF.ProjectId,PlayStation 1 Reset Mod,506c6179-5374-4617-9469-6f6e20312052,rev?*
G04 #@! TF.SameCoordinates,Original*
G04 #@! TF.FileFunction,Legend,Top*
G04 #@! TF.FilePolarity,Positive*
%FSLAX46Y46*%
G04 Gerber Fmt 4.6, Leading zero omitted, Abs format (unit mm)*
G04 Created by KiCad (PCBNEW (5.1.2)-2) date 2019-10-19 23:40:14*
%MOMM*%
%LPD*%
G04 APERTURE LIST*
%ADD10C,0.150000*%
%ADD11C,0.120000*%
G04 APERTURE END LIST*
D10*
X131796285Y-95082085D02*
X132332000Y-95082085D01*
X132439142Y-95117800D01*
X132510571Y-95189228D01*
X132546285Y-95296371D01*
X132546285Y-95367800D01*
X132546285Y-94367800D02*
X132546285Y-94724942D01*
X131796285Y-94724942D01*
X132474857Y-93689228D02*
X132510571Y-93724942D01*
X132546285Y-93832085D01*
X132546285Y-93903514D01*
X132510571Y-94010657D01*
X132439142Y-94082085D01*
X132367714Y-94117800D01*
X132224857Y-94153514D01*
X132117714Y-94153514D01*
X131974857Y-94117800D01*
X131903428Y-94082085D01*
X131832000Y-94010657D01*
X131796285Y-93903514D01*
X131796285Y-93832085D01*
X131832000Y-93724942D01*
X131867714Y-93689228D01*
X131796285Y-93153514D02*
X132332000Y-93153514D01*
X132439142Y-93189228D01*
X132510571Y-93260657D01*
X132546285Y-93367800D01*
X132546285Y-93439228D01*
X132546285Y-92439228D02*
X132546285Y-92796371D01*
X131796285Y-92796371D01*
X132474857Y-91760657D02*
X132510571Y-91796371D01*
X132546285Y-91903514D01*
X132546285Y-91974942D01*
X132510571Y-92082085D01*
X132439142Y-92153514D01*
X132367714Y-92189228D01*
X132224857Y-92224942D01*
X132117714Y-92224942D01*
X131974857Y-92189228D01*
X131903428Y-92153514D01*
X131832000Y-92082085D01*
X131796285Y-91974942D01*
X131796285Y-91903514D01*
X131832000Y-91796371D01*
X131867714Y-91760657D01*
X131796285Y-91224942D02*
X132332000Y-91224942D01*
X132439142Y-91260657D01*
X132510571Y-91332085D01*
X132546285Y-91439228D01*
X132546285Y-91510657D01*
X132546285Y-90510657D02*
X132546285Y-90867800D01*
X131796285Y-90867800D01*
X132474857Y-89832085D02*
X132510571Y-89867800D01*
X132546285Y-89974942D01*
X132546285Y-90046371D01*
X132510571Y-90153514D01*
X132439142Y-90224942D01*
X132367714Y-90260657D01*
X132224857Y-90296371D01*
X132117714Y-90296371D01*
X131974857Y-90260657D01*
X131903428Y-90224942D01*
X131832000Y-90153514D01*
X131796285Y-90046371D01*
X131796285Y-89974942D01*
X131832000Y-89867800D01*
X131867714Y-89832085D01*
X131796285Y-89296371D02*
X132332000Y-89296371D01*
X132439142Y-89332085D01*
X132510571Y-89403514D01*
X132546285Y-89510657D01*
X132546285Y-89582085D01*
X132546285Y-88582085D02*
X132546285Y-88939228D01*
X131796285Y-88939228D01*
X132474857Y-87903514D02*
X132510571Y-87939228D01*
X132546285Y-88046371D01*
X132546285Y-88117800D01*
X132510571Y-88224942D01*
X132439142Y-88296371D01*
X132367714Y-88332085D01*
X132224857Y-88367800D01*
X132117714Y-88367800D01*
X131974857Y-88332085D01*
X131903428Y-88296371D01*
X131832000Y-88224942D01*
X131796285Y-88117800D01*
X131796285Y-88046371D01*
X131832000Y-87939228D01*
X131867714Y-87903514D01*
D11*
X132084433Y-86124200D02*
X132426967Y-86124200D01*
X132084433Y-85104200D02*
X132426967Y-85104200D01*
X140141500Y-94936000D02*
G75*
G03X140141500Y-94936000I-950000J0D01*
G01*
X140141500Y-88459000D02*
G75*
G03X140141500Y-88459000I-950000J0D01*
G01*
X126367000Y-86615000D02*
X126367000Y-84715000D01*
X128267000Y-86615000D02*
X126367000Y-86615000D01*
X128267000Y-84715000D02*
X128267000Y-86615000D01*
X126367000Y-84715000D02*
X128267000Y-84715000D01*
X140141500Y-85598000D02*
G75*
G03X140141500Y-85598000I-950000J0D01*
G01*
X128267000Y-94936000D02*
G75*
G03X128267000Y-94936000I-950000J0D01*
G01*
X140141500Y-92777000D02*
G75*
G03X140141500Y-92777000I-950000J0D01*
G01*
X140141500Y-90618000D02*
G75*
G03X140141500Y-90618000I-950000J0D01*
G01*
X131653636Y-84704200D02*
X132857764Y-84704200D01*
X131653636Y-86524200D02*
X132857764Y-86524200D01*
X131994448Y-84904200D02*
X132516952Y-84904200D01*
X131994448Y-86324200D02*
X132516952Y-86324200D01*
X132270000Y-95942000D02*
X134220000Y-95942000D01*
X132270000Y-95942000D02*
X130320000Y-95942000D01*
X132270000Y-87072000D02*
X134220000Y-87072000D01*
X132270000Y-87072000D02*
X128820000Y-87072000D01*
D10*
X136461071Y-95203857D02*
X136425357Y-95239571D01*
X136318214Y-95275285D01*
X136246785Y-95275285D01*
X136139642Y-95239571D01*
X136068214Y-95168142D01*
X136032500Y-95096714D01*
X135996785Y-94953857D01*
X135996785Y-94846714D01*
X136032500Y-94703857D01*
X136068214Y-94632428D01*
X136139642Y-94561000D01*
X136246785Y-94525285D01*
X136318214Y-94525285D01*
X136425357Y-94561000D01*
X136461071Y-94596714D01*
X136782500Y-95275285D02*
X136782500Y-94525285D01*
X137032500Y-95061000D01*
X137282500Y-94525285D01*
X137282500Y-95275285D01*
X137639642Y-95275285D02*
X137639642Y-94525285D01*
X137818214Y-94525285D01*
X137925357Y-94561000D01*
X137996785Y-94632428D01*
X138032500Y-94703857D01*
X138068214Y-94846714D01*
X138068214Y-94953857D01*
X138032500Y-95096714D01*
X137996785Y-95168142D01*
X137925357Y-95239571D01*
X137818214Y-95275285D01*
X137639642Y-95275285D01*
X136699214Y-87851000D02*
X137413500Y-87851000D01*
X136842071Y-88889571D02*
X136949214Y-88925285D01*
X137127785Y-88925285D01*
X137199214Y-88889571D01*
X137234928Y-88853857D01*
X137270642Y-88782428D01*
X137270642Y-88711000D01*
X137234928Y-88639571D01*
X137199214Y-88603857D01*
X137127785Y-88568142D01*
X136984928Y-88532428D01*
X136913500Y-88496714D01*
X136877785Y-88461000D01*
X136842071Y-88389571D01*
X136842071Y-88318142D01*
X136877785Y-88246714D01*
X136913500Y-88211000D01*
X136984928Y-88175285D01*
X137163500Y-88175285D01*
X137270642Y-88211000D01*
X137413500Y-87851000D02*
X138127785Y-87851000D01*
X137556357Y-88889571D02*
X137663500Y-88925285D01*
X137842071Y-88925285D01*
X137913500Y-88889571D01*
X137949214Y-88853857D01*
X137984928Y-88782428D01*
X137984928Y-88711000D01*
X137949214Y-88639571D01*
X137913500Y-88603857D01*
X137842071Y-88568142D01*
X137699214Y-88532428D01*
X137627785Y-88496714D01*
X137592071Y-88461000D01*
X137556357Y-88389571D01*
X137556357Y-88318142D01*
X137592071Y-88246714D01*
X137627785Y-88211000D01*
X137699214Y-88175285D01*
X137877785Y-88175285D01*
X137984928Y-88211000D01*
X126197657Y-86863685D02*
X126661942Y-86863685D01*
X126411942Y-87149400D01*
X126519085Y-87149400D01*
X126590514Y-87185114D01*
X126626228Y-87220828D01*
X126661942Y-87292257D01*
X126661942Y-87470828D01*
X126626228Y-87542257D01*
X126590514Y-87577971D01*
X126519085Y-87613685D01*
X126304800Y-87613685D01*
X126233371Y-87577971D01*
X126197657Y-87542257D01*
X126983371Y-87542257D02*
X127019085Y-87577971D01*
X126983371Y-87613685D01*
X126947657Y-87577971D01*
X126983371Y-87542257D01*
X126983371Y-87613685D01*
X127697657Y-86863685D02*
X127340514Y-86863685D01*
X127304800Y-87220828D01*
X127340514Y-87185114D01*
X127411942Y-87149400D01*
X127590514Y-87149400D01*
X127661942Y-87185114D01*
X127697657Y-87220828D01*
X127733371Y-87292257D01*
X127733371Y-87470828D01*
X127697657Y-87542257D01*
X127661942Y-87577971D01*
X127590514Y-87613685D01*
X127411942Y-87613685D01*
X127340514Y-87577971D01*
X127304800Y-87542257D01*
X127947657Y-86863685D02*
X128197657Y-87613685D01*
X128447657Y-86863685D01*
X136461071Y-85223000D02*
X136389642Y-85187285D01*
X136282500Y-85187285D01*
X136175357Y-85223000D01*
X136103928Y-85294428D01*
X136068214Y-85365857D01*
X136032500Y-85508714D01*
X136032500Y-85615857D01*
X136068214Y-85758714D01*
X136103928Y-85830142D01*
X136175357Y-85901571D01*
X136282500Y-85937285D01*
X136353928Y-85937285D01*
X136461071Y-85901571D01*
X136496785Y-85865857D01*
X136496785Y-85615857D01*
X136353928Y-85615857D01*
X136818214Y-85937285D02*
X136818214Y-85187285D01*
X137246785Y-85937285D01*
X137246785Y-85187285D01*
X137603928Y-85937285D02*
X137603928Y-85187285D01*
X137782500Y-85187285D01*
X137889642Y-85223000D01*
X137961071Y-85294428D01*
X137996785Y-85365857D01*
X138032500Y-85508714D01*
X138032500Y-85615857D01*
X137996785Y-85758714D01*
X137961071Y-85830142D01*
X137889642Y-85901571D01*
X137782500Y-85937285D01*
X137603928Y-85937285D01*
X126906285Y-93751285D02*
X126656285Y-93394142D01*
X126477714Y-93751285D02*
X126477714Y-93001285D01*
X126763428Y-93001285D01*
X126834857Y-93037000D01*
X126870571Y-93072714D01*
X126906285Y-93144142D01*
X126906285Y-93251285D01*
X126870571Y-93322714D01*
X126834857Y-93358428D01*
X126763428Y-93394142D01*
X126477714Y-93394142D01*
X127192000Y-93715571D02*
X127299142Y-93751285D01*
X127477714Y-93751285D01*
X127549142Y-93715571D01*
X127584857Y-93679857D01*
X127620571Y-93608428D01*
X127620571Y-93537000D01*
X127584857Y-93465571D01*
X127549142Y-93429857D01*
X127477714Y-93394142D01*
X127334857Y-93358428D01*
X127263428Y-93322714D01*
X127227714Y-93287000D01*
X127192000Y-93215571D01*
X127192000Y-93144142D01*
X127227714Y-93072714D01*
X127263428Y-93037000D01*
X127334857Y-93001285D01*
X127513428Y-93001285D01*
X127620571Y-93037000D01*
X127834857Y-93001285D02*
X128263428Y-93001285D01*
X128049142Y-93751285D02*
X128049142Y-93001285D01*
X136355928Y-93116285D02*
X136355928Y-92366285D01*
X136534500Y-92366285D01*
X136641642Y-92402000D01*
X136713071Y-92473428D01*
X136748785Y-92544857D01*
X136784500Y-92687714D01*
X136784500Y-92794857D01*
X136748785Y-92937714D01*
X136713071Y-93009142D01*
X136641642Y-93080571D01*
X136534500Y-93116285D01*
X136355928Y-93116285D01*
X137070214Y-92902000D02*
X137427357Y-92902000D01*
X136998785Y-93116285D02*
X137248785Y-92366285D01*
X137498785Y-93116285D01*
X137641642Y-92366285D02*
X138070214Y-92366285D01*
X137855928Y-93116285D02*
X137855928Y-92366285D01*
X136713071Y-90885857D02*
X136677357Y-90921571D01*
X136570214Y-90957285D01*
X136498785Y-90957285D01*
X136391642Y-90921571D01*
X136320214Y-90850142D01*
X136284500Y-90778714D01*
X136248785Y-90635857D01*
X136248785Y-90528714D01*
X136284500Y-90385857D01*
X136320214Y-90314428D01*
X136391642Y-90243000D01*
X136498785Y-90207285D01*
X136570214Y-90207285D01*
X136677357Y-90243000D01*
X136713071Y-90278714D01*
X137391642Y-90957285D02*
X137034500Y-90957285D01*
X137034500Y-90207285D01*
X137641642Y-90957285D02*
X137641642Y-90207285D01*
X138070214Y-90957285D02*
X137748785Y-90528714D01*
X138070214Y-90207285D02*
X137641642Y-90635857D01*
X129604657Y-85748400D02*
X129640371Y-85784114D01*
X129676085Y-85891257D01*
X129676085Y-85962685D01*
X129640371Y-86069828D01*
X129568942Y-86141257D01*
X129497514Y-86176971D01*
X129354657Y-86212685D01*
X129247514Y-86212685D01*
X129104657Y-86176971D01*
X129033228Y-86141257D01*
X128961800Y-86069828D01*
X128926085Y-85962685D01*
X128926085Y-85891257D01*
X128961800Y-85784114D01*
X128997514Y-85748400D01*
X129676085Y-85034114D02*
X129676085Y-85462685D01*
X129676085Y-85248400D02*
X128926085Y-85248400D01*
X129033228Y-85319828D01*
X129104657Y-85391257D01*
X129140371Y-85462685D01*
M02*
