G04 #@! TF.GenerationSoftware,KiCad,Pcbnew,(5.1.2)-2*
G04 #@! TF.CreationDate,2019-10-19T20:06:55+02:00*
G04 #@! TF.ProjectId,PlayStation 1 Reset Mod,506c6179-5374-4617-9469-6f6e20312052,rev?*
G04 #@! TF.SameCoordinates,Original*
G04 #@! TF.FileFunction,Copper,L1,Top*
G04 #@! TF.FilePolarity,Positive*
%FSLAX46Y46*%
G04 Gerber Fmt 4.6, Leading zero omitted, Abs format (unit mm)*
G04 Created by KiCad (PCBNEW (5.1.2)-2) date 2019-10-19 20:06:55*
%MOMM*%
%LPD*%
G04 APERTURE LIST*
%ADD10C,1.500000*%
%ADD11R,1.500000X1.500000*%
%ADD12C,0.100000*%
%ADD13C,1.425000*%
%ADD14C,1.150000*%
%ADD15C,0.600000*%
%ADD16C,0.800000*%
%ADD17C,0.500000*%
%ADD18C,1.000000*%
G04 APERTURE END LIST*
D10*
X139191500Y-94936000D03*
X139191500Y-88459000D03*
D11*
X127317000Y-85665000D03*
D10*
X139191500Y-85598000D03*
X127317000Y-94936000D03*
X139191500Y-92777000D03*
X139191500Y-90618000D03*
D12*
G36*
X131255204Y-84740404D02*
G01*
X131279473Y-84744004D01*
X131303271Y-84749965D01*
X131326371Y-84758230D01*
X131348549Y-84768720D01*
X131369593Y-84781333D01*
X131389298Y-84795947D01*
X131407477Y-84812423D01*
X131423953Y-84830602D01*
X131438567Y-84850307D01*
X131451180Y-84871351D01*
X131461670Y-84893529D01*
X131469935Y-84916629D01*
X131475896Y-84940427D01*
X131479496Y-84964696D01*
X131480700Y-84989200D01*
X131480700Y-86239200D01*
X131479496Y-86263704D01*
X131475896Y-86287973D01*
X131469935Y-86311771D01*
X131461670Y-86334871D01*
X131451180Y-86357049D01*
X131438567Y-86378093D01*
X131423953Y-86397798D01*
X131407477Y-86415977D01*
X131389298Y-86432453D01*
X131369593Y-86447067D01*
X131348549Y-86459680D01*
X131326371Y-86470170D01*
X131303271Y-86478435D01*
X131279473Y-86484396D01*
X131255204Y-86487996D01*
X131230700Y-86489200D01*
X130305700Y-86489200D01*
X130281196Y-86487996D01*
X130256927Y-86484396D01*
X130233129Y-86478435D01*
X130210029Y-86470170D01*
X130187851Y-86459680D01*
X130166807Y-86447067D01*
X130147102Y-86432453D01*
X130128923Y-86415977D01*
X130112447Y-86397798D01*
X130097833Y-86378093D01*
X130085220Y-86357049D01*
X130074730Y-86334871D01*
X130066465Y-86311771D01*
X130060504Y-86287973D01*
X130056904Y-86263704D01*
X130055700Y-86239200D01*
X130055700Y-84989200D01*
X130056904Y-84964696D01*
X130060504Y-84940427D01*
X130066465Y-84916629D01*
X130074730Y-84893529D01*
X130085220Y-84871351D01*
X130097833Y-84850307D01*
X130112447Y-84830602D01*
X130128923Y-84812423D01*
X130147102Y-84795947D01*
X130166807Y-84781333D01*
X130187851Y-84768720D01*
X130210029Y-84758230D01*
X130233129Y-84749965D01*
X130256927Y-84744004D01*
X130281196Y-84740404D01*
X130305700Y-84739200D01*
X131230700Y-84739200D01*
X131255204Y-84740404D01*
X131255204Y-84740404D01*
G37*
D13*
X130768200Y-85614200D03*
D12*
G36*
X134230204Y-84740404D02*
G01*
X134254473Y-84744004D01*
X134278271Y-84749965D01*
X134301371Y-84758230D01*
X134323549Y-84768720D01*
X134344593Y-84781333D01*
X134364298Y-84795947D01*
X134382477Y-84812423D01*
X134398953Y-84830602D01*
X134413567Y-84850307D01*
X134426180Y-84871351D01*
X134436670Y-84893529D01*
X134444935Y-84916629D01*
X134450896Y-84940427D01*
X134454496Y-84964696D01*
X134455700Y-84989200D01*
X134455700Y-86239200D01*
X134454496Y-86263704D01*
X134450896Y-86287973D01*
X134444935Y-86311771D01*
X134436670Y-86334871D01*
X134426180Y-86357049D01*
X134413567Y-86378093D01*
X134398953Y-86397798D01*
X134382477Y-86415977D01*
X134364298Y-86432453D01*
X134344593Y-86447067D01*
X134323549Y-86459680D01*
X134301371Y-86470170D01*
X134278271Y-86478435D01*
X134254473Y-86484396D01*
X134230204Y-86487996D01*
X134205700Y-86489200D01*
X133280700Y-86489200D01*
X133256196Y-86487996D01*
X133231927Y-86484396D01*
X133208129Y-86478435D01*
X133185029Y-86470170D01*
X133162851Y-86459680D01*
X133141807Y-86447067D01*
X133122102Y-86432453D01*
X133103923Y-86415977D01*
X133087447Y-86397798D01*
X133072833Y-86378093D01*
X133060220Y-86357049D01*
X133049730Y-86334871D01*
X133041465Y-86311771D01*
X133035504Y-86287973D01*
X133031904Y-86263704D01*
X133030700Y-86239200D01*
X133030700Y-84989200D01*
X133031904Y-84964696D01*
X133035504Y-84940427D01*
X133041465Y-84916629D01*
X133049730Y-84893529D01*
X133060220Y-84871351D01*
X133072833Y-84850307D01*
X133087447Y-84830602D01*
X133103923Y-84812423D01*
X133122102Y-84795947D01*
X133141807Y-84781333D01*
X133162851Y-84768720D01*
X133185029Y-84758230D01*
X133208129Y-84749965D01*
X133231927Y-84744004D01*
X133256196Y-84740404D01*
X133280700Y-84739200D01*
X134205700Y-84739200D01*
X134230204Y-84740404D01*
X134230204Y-84740404D01*
G37*
D13*
X133743200Y-85614200D03*
D12*
G36*
X131580205Y-84915404D02*
G01*
X131604473Y-84919004D01*
X131628272Y-84924965D01*
X131651371Y-84933230D01*
X131673550Y-84943720D01*
X131694593Y-84956332D01*
X131714299Y-84970947D01*
X131732477Y-84987423D01*
X131748953Y-85005601D01*
X131763568Y-85025307D01*
X131776180Y-85046350D01*
X131786670Y-85068529D01*
X131794935Y-85091628D01*
X131800896Y-85115427D01*
X131804496Y-85139695D01*
X131805700Y-85164199D01*
X131805700Y-86064201D01*
X131804496Y-86088705D01*
X131800896Y-86112973D01*
X131794935Y-86136772D01*
X131786670Y-86159871D01*
X131776180Y-86182050D01*
X131763568Y-86203093D01*
X131748953Y-86222799D01*
X131732477Y-86240977D01*
X131714299Y-86257453D01*
X131694593Y-86272068D01*
X131673550Y-86284680D01*
X131651371Y-86295170D01*
X131628272Y-86303435D01*
X131604473Y-86309396D01*
X131580205Y-86312996D01*
X131555701Y-86314200D01*
X130905699Y-86314200D01*
X130881195Y-86312996D01*
X130856927Y-86309396D01*
X130833128Y-86303435D01*
X130810029Y-86295170D01*
X130787850Y-86284680D01*
X130766807Y-86272068D01*
X130747101Y-86257453D01*
X130728923Y-86240977D01*
X130712447Y-86222799D01*
X130697832Y-86203093D01*
X130685220Y-86182050D01*
X130674730Y-86159871D01*
X130666465Y-86136772D01*
X130660504Y-86112973D01*
X130656904Y-86088705D01*
X130655700Y-86064201D01*
X130655700Y-85164199D01*
X130656904Y-85139695D01*
X130660504Y-85115427D01*
X130666465Y-85091628D01*
X130674730Y-85068529D01*
X130685220Y-85046350D01*
X130697832Y-85025307D01*
X130712447Y-85005601D01*
X130728923Y-84987423D01*
X130747101Y-84970947D01*
X130766807Y-84956332D01*
X130787850Y-84943720D01*
X130810029Y-84933230D01*
X130833128Y-84924965D01*
X130856927Y-84919004D01*
X130881195Y-84915404D01*
X130905699Y-84914200D01*
X131555701Y-84914200D01*
X131580205Y-84915404D01*
X131580205Y-84915404D01*
G37*
D14*
X131230700Y-85614200D03*
D12*
G36*
X133630205Y-84915404D02*
G01*
X133654473Y-84919004D01*
X133678272Y-84924965D01*
X133701371Y-84933230D01*
X133723550Y-84943720D01*
X133744593Y-84956332D01*
X133764299Y-84970947D01*
X133782477Y-84987423D01*
X133798953Y-85005601D01*
X133813568Y-85025307D01*
X133826180Y-85046350D01*
X133836670Y-85068529D01*
X133844935Y-85091628D01*
X133850896Y-85115427D01*
X133854496Y-85139695D01*
X133855700Y-85164199D01*
X133855700Y-86064201D01*
X133854496Y-86088705D01*
X133850896Y-86112973D01*
X133844935Y-86136772D01*
X133836670Y-86159871D01*
X133826180Y-86182050D01*
X133813568Y-86203093D01*
X133798953Y-86222799D01*
X133782477Y-86240977D01*
X133764299Y-86257453D01*
X133744593Y-86272068D01*
X133723550Y-86284680D01*
X133701371Y-86295170D01*
X133678272Y-86303435D01*
X133654473Y-86309396D01*
X133630205Y-86312996D01*
X133605701Y-86314200D01*
X132955699Y-86314200D01*
X132931195Y-86312996D01*
X132906927Y-86309396D01*
X132883128Y-86303435D01*
X132860029Y-86295170D01*
X132837850Y-86284680D01*
X132816807Y-86272068D01*
X132797101Y-86257453D01*
X132778923Y-86240977D01*
X132762447Y-86222799D01*
X132747832Y-86203093D01*
X132735220Y-86182050D01*
X132724730Y-86159871D01*
X132716465Y-86136772D01*
X132710504Y-86112973D01*
X132706904Y-86088705D01*
X132705700Y-86064201D01*
X132705700Y-85164199D01*
X132706904Y-85139695D01*
X132710504Y-85115427D01*
X132716465Y-85091628D01*
X132724730Y-85068529D01*
X132735220Y-85046350D01*
X132747832Y-85025307D01*
X132762447Y-85005601D01*
X132778923Y-84987423D01*
X132797101Y-84970947D01*
X132816807Y-84956332D01*
X132837850Y-84943720D01*
X132860029Y-84933230D01*
X132883128Y-84924965D01*
X132906927Y-84919004D01*
X132931195Y-84915404D01*
X132955699Y-84914200D01*
X133605701Y-84914200D01*
X133630205Y-84915404D01*
X133630205Y-84915404D01*
G37*
D14*
X133280700Y-85614200D03*
D12*
G36*
X130634703Y-87397722D02*
G01*
X130649264Y-87399882D01*
X130663543Y-87403459D01*
X130677403Y-87408418D01*
X130690710Y-87414712D01*
X130703336Y-87422280D01*
X130715159Y-87431048D01*
X130726066Y-87440934D01*
X130735952Y-87451841D01*
X130744720Y-87463664D01*
X130752288Y-87476290D01*
X130758582Y-87489597D01*
X130763541Y-87503457D01*
X130767118Y-87517736D01*
X130769278Y-87532297D01*
X130770000Y-87547000D01*
X130770000Y-87847000D01*
X130769278Y-87861703D01*
X130767118Y-87876264D01*
X130763541Y-87890543D01*
X130758582Y-87904403D01*
X130752288Y-87917710D01*
X130744720Y-87930336D01*
X130735952Y-87942159D01*
X130726066Y-87953066D01*
X130715159Y-87962952D01*
X130703336Y-87971720D01*
X130690710Y-87979288D01*
X130677403Y-87985582D01*
X130663543Y-87990541D01*
X130649264Y-87994118D01*
X130634703Y-87996278D01*
X130620000Y-87997000D01*
X128970000Y-87997000D01*
X128955297Y-87996278D01*
X128940736Y-87994118D01*
X128926457Y-87990541D01*
X128912597Y-87985582D01*
X128899290Y-87979288D01*
X128886664Y-87971720D01*
X128874841Y-87962952D01*
X128863934Y-87953066D01*
X128854048Y-87942159D01*
X128845280Y-87930336D01*
X128837712Y-87917710D01*
X128831418Y-87904403D01*
X128826459Y-87890543D01*
X128822882Y-87876264D01*
X128820722Y-87861703D01*
X128820000Y-87847000D01*
X128820000Y-87547000D01*
X128820722Y-87532297D01*
X128822882Y-87517736D01*
X128826459Y-87503457D01*
X128831418Y-87489597D01*
X128837712Y-87476290D01*
X128845280Y-87463664D01*
X128854048Y-87451841D01*
X128863934Y-87440934D01*
X128874841Y-87431048D01*
X128886664Y-87422280D01*
X128899290Y-87414712D01*
X128912597Y-87408418D01*
X128926457Y-87403459D01*
X128940736Y-87399882D01*
X128955297Y-87397722D01*
X128970000Y-87397000D01*
X130620000Y-87397000D01*
X130634703Y-87397722D01*
X130634703Y-87397722D01*
G37*
D15*
X129795000Y-87697000D03*
D12*
G36*
X130634703Y-88667722D02*
G01*
X130649264Y-88669882D01*
X130663543Y-88673459D01*
X130677403Y-88678418D01*
X130690710Y-88684712D01*
X130703336Y-88692280D01*
X130715159Y-88701048D01*
X130726066Y-88710934D01*
X130735952Y-88721841D01*
X130744720Y-88733664D01*
X130752288Y-88746290D01*
X130758582Y-88759597D01*
X130763541Y-88773457D01*
X130767118Y-88787736D01*
X130769278Y-88802297D01*
X130770000Y-88817000D01*
X130770000Y-89117000D01*
X130769278Y-89131703D01*
X130767118Y-89146264D01*
X130763541Y-89160543D01*
X130758582Y-89174403D01*
X130752288Y-89187710D01*
X130744720Y-89200336D01*
X130735952Y-89212159D01*
X130726066Y-89223066D01*
X130715159Y-89232952D01*
X130703336Y-89241720D01*
X130690710Y-89249288D01*
X130677403Y-89255582D01*
X130663543Y-89260541D01*
X130649264Y-89264118D01*
X130634703Y-89266278D01*
X130620000Y-89267000D01*
X128970000Y-89267000D01*
X128955297Y-89266278D01*
X128940736Y-89264118D01*
X128926457Y-89260541D01*
X128912597Y-89255582D01*
X128899290Y-89249288D01*
X128886664Y-89241720D01*
X128874841Y-89232952D01*
X128863934Y-89223066D01*
X128854048Y-89212159D01*
X128845280Y-89200336D01*
X128837712Y-89187710D01*
X128831418Y-89174403D01*
X128826459Y-89160543D01*
X128822882Y-89146264D01*
X128820722Y-89131703D01*
X128820000Y-89117000D01*
X128820000Y-88817000D01*
X128820722Y-88802297D01*
X128822882Y-88787736D01*
X128826459Y-88773457D01*
X128831418Y-88759597D01*
X128837712Y-88746290D01*
X128845280Y-88733664D01*
X128854048Y-88721841D01*
X128863934Y-88710934D01*
X128874841Y-88701048D01*
X128886664Y-88692280D01*
X128899290Y-88684712D01*
X128912597Y-88678418D01*
X128926457Y-88673459D01*
X128940736Y-88669882D01*
X128955297Y-88667722D01*
X128970000Y-88667000D01*
X130620000Y-88667000D01*
X130634703Y-88667722D01*
X130634703Y-88667722D01*
G37*
D15*
X129795000Y-88967000D03*
D12*
G36*
X130634703Y-89937722D02*
G01*
X130649264Y-89939882D01*
X130663543Y-89943459D01*
X130677403Y-89948418D01*
X130690710Y-89954712D01*
X130703336Y-89962280D01*
X130715159Y-89971048D01*
X130726066Y-89980934D01*
X130735952Y-89991841D01*
X130744720Y-90003664D01*
X130752288Y-90016290D01*
X130758582Y-90029597D01*
X130763541Y-90043457D01*
X130767118Y-90057736D01*
X130769278Y-90072297D01*
X130770000Y-90087000D01*
X130770000Y-90387000D01*
X130769278Y-90401703D01*
X130767118Y-90416264D01*
X130763541Y-90430543D01*
X130758582Y-90444403D01*
X130752288Y-90457710D01*
X130744720Y-90470336D01*
X130735952Y-90482159D01*
X130726066Y-90493066D01*
X130715159Y-90502952D01*
X130703336Y-90511720D01*
X130690710Y-90519288D01*
X130677403Y-90525582D01*
X130663543Y-90530541D01*
X130649264Y-90534118D01*
X130634703Y-90536278D01*
X130620000Y-90537000D01*
X128970000Y-90537000D01*
X128955297Y-90536278D01*
X128940736Y-90534118D01*
X128926457Y-90530541D01*
X128912597Y-90525582D01*
X128899290Y-90519288D01*
X128886664Y-90511720D01*
X128874841Y-90502952D01*
X128863934Y-90493066D01*
X128854048Y-90482159D01*
X128845280Y-90470336D01*
X128837712Y-90457710D01*
X128831418Y-90444403D01*
X128826459Y-90430543D01*
X128822882Y-90416264D01*
X128820722Y-90401703D01*
X128820000Y-90387000D01*
X128820000Y-90087000D01*
X128820722Y-90072297D01*
X128822882Y-90057736D01*
X128826459Y-90043457D01*
X128831418Y-90029597D01*
X128837712Y-90016290D01*
X128845280Y-90003664D01*
X128854048Y-89991841D01*
X128863934Y-89980934D01*
X128874841Y-89971048D01*
X128886664Y-89962280D01*
X128899290Y-89954712D01*
X128912597Y-89948418D01*
X128926457Y-89943459D01*
X128940736Y-89939882D01*
X128955297Y-89937722D01*
X128970000Y-89937000D01*
X130620000Y-89937000D01*
X130634703Y-89937722D01*
X130634703Y-89937722D01*
G37*
D15*
X129795000Y-90237000D03*
D12*
G36*
X130634703Y-91207722D02*
G01*
X130649264Y-91209882D01*
X130663543Y-91213459D01*
X130677403Y-91218418D01*
X130690710Y-91224712D01*
X130703336Y-91232280D01*
X130715159Y-91241048D01*
X130726066Y-91250934D01*
X130735952Y-91261841D01*
X130744720Y-91273664D01*
X130752288Y-91286290D01*
X130758582Y-91299597D01*
X130763541Y-91313457D01*
X130767118Y-91327736D01*
X130769278Y-91342297D01*
X130770000Y-91357000D01*
X130770000Y-91657000D01*
X130769278Y-91671703D01*
X130767118Y-91686264D01*
X130763541Y-91700543D01*
X130758582Y-91714403D01*
X130752288Y-91727710D01*
X130744720Y-91740336D01*
X130735952Y-91752159D01*
X130726066Y-91763066D01*
X130715159Y-91772952D01*
X130703336Y-91781720D01*
X130690710Y-91789288D01*
X130677403Y-91795582D01*
X130663543Y-91800541D01*
X130649264Y-91804118D01*
X130634703Y-91806278D01*
X130620000Y-91807000D01*
X128970000Y-91807000D01*
X128955297Y-91806278D01*
X128940736Y-91804118D01*
X128926457Y-91800541D01*
X128912597Y-91795582D01*
X128899290Y-91789288D01*
X128886664Y-91781720D01*
X128874841Y-91772952D01*
X128863934Y-91763066D01*
X128854048Y-91752159D01*
X128845280Y-91740336D01*
X128837712Y-91727710D01*
X128831418Y-91714403D01*
X128826459Y-91700543D01*
X128822882Y-91686264D01*
X128820722Y-91671703D01*
X128820000Y-91657000D01*
X128820000Y-91357000D01*
X128820722Y-91342297D01*
X128822882Y-91327736D01*
X128826459Y-91313457D01*
X128831418Y-91299597D01*
X128837712Y-91286290D01*
X128845280Y-91273664D01*
X128854048Y-91261841D01*
X128863934Y-91250934D01*
X128874841Y-91241048D01*
X128886664Y-91232280D01*
X128899290Y-91224712D01*
X128912597Y-91218418D01*
X128926457Y-91213459D01*
X128940736Y-91209882D01*
X128955297Y-91207722D01*
X128970000Y-91207000D01*
X130620000Y-91207000D01*
X130634703Y-91207722D01*
X130634703Y-91207722D01*
G37*
D15*
X129795000Y-91507000D03*
D12*
G36*
X130634703Y-92477722D02*
G01*
X130649264Y-92479882D01*
X130663543Y-92483459D01*
X130677403Y-92488418D01*
X130690710Y-92494712D01*
X130703336Y-92502280D01*
X130715159Y-92511048D01*
X130726066Y-92520934D01*
X130735952Y-92531841D01*
X130744720Y-92543664D01*
X130752288Y-92556290D01*
X130758582Y-92569597D01*
X130763541Y-92583457D01*
X130767118Y-92597736D01*
X130769278Y-92612297D01*
X130770000Y-92627000D01*
X130770000Y-92927000D01*
X130769278Y-92941703D01*
X130767118Y-92956264D01*
X130763541Y-92970543D01*
X130758582Y-92984403D01*
X130752288Y-92997710D01*
X130744720Y-93010336D01*
X130735952Y-93022159D01*
X130726066Y-93033066D01*
X130715159Y-93042952D01*
X130703336Y-93051720D01*
X130690710Y-93059288D01*
X130677403Y-93065582D01*
X130663543Y-93070541D01*
X130649264Y-93074118D01*
X130634703Y-93076278D01*
X130620000Y-93077000D01*
X128970000Y-93077000D01*
X128955297Y-93076278D01*
X128940736Y-93074118D01*
X128926457Y-93070541D01*
X128912597Y-93065582D01*
X128899290Y-93059288D01*
X128886664Y-93051720D01*
X128874841Y-93042952D01*
X128863934Y-93033066D01*
X128854048Y-93022159D01*
X128845280Y-93010336D01*
X128837712Y-92997710D01*
X128831418Y-92984403D01*
X128826459Y-92970543D01*
X128822882Y-92956264D01*
X128820722Y-92941703D01*
X128820000Y-92927000D01*
X128820000Y-92627000D01*
X128820722Y-92612297D01*
X128822882Y-92597736D01*
X128826459Y-92583457D01*
X128831418Y-92569597D01*
X128837712Y-92556290D01*
X128845280Y-92543664D01*
X128854048Y-92531841D01*
X128863934Y-92520934D01*
X128874841Y-92511048D01*
X128886664Y-92502280D01*
X128899290Y-92494712D01*
X128912597Y-92488418D01*
X128926457Y-92483459D01*
X128940736Y-92479882D01*
X128955297Y-92477722D01*
X128970000Y-92477000D01*
X130620000Y-92477000D01*
X130634703Y-92477722D01*
X130634703Y-92477722D01*
G37*
D15*
X129795000Y-92777000D03*
D12*
G36*
X130634703Y-93747722D02*
G01*
X130649264Y-93749882D01*
X130663543Y-93753459D01*
X130677403Y-93758418D01*
X130690710Y-93764712D01*
X130703336Y-93772280D01*
X130715159Y-93781048D01*
X130726066Y-93790934D01*
X130735952Y-93801841D01*
X130744720Y-93813664D01*
X130752288Y-93826290D01*
X130758582Y-93839597D01*
X130763541Y-93853457D01*
X130767118Y-93867736D01*
X130769278Y-93882297D01*
X130770000Y-93897000D01*
X130770000Y-94197000D01*
X130769278Y-94211703D01*
X130767118Y-94226264D01*
X130763541Y-94240543D01*
X130758582Y-94254403D01*
X130752288Y-94267710D01*
X130744720Y-94280336D01*
X130735952Y-94292159D01*
X130726066Y-94303066D01*
X130715159Y-94312952D01*
X130703336Y-94321720D01*
X130690710Y-94329288D01*
X130677403Y-94335582D01*
X130663543Y-94340541D01*
X130649264Y-94344118D01*
X130634703Y-94346278D01*
X130620000Y-94347000D01*
X128970000Y-94347000D01*
X128955297Y-94346278D01*
X128940736Y-94344118D01*
X128926457Y-94340541D01*
X128912597Y-94335582D01*
X128899290Y-94329288D01*
X128886664Y-94321720D01*
X128874841Y-94312952D01*
X128863934Y-94303066D01*
X128854048Y-94292159D01*
X128845280Y-94280336D01*
X128837712Y-94267710D01*
X128831418Y-94254403D01*
X128826459Y-94240543D01*
X128822882Y-94226264D01*
X128820722Y-94211703D01*
X128820000Y-94197000D01*
X128820000Y-93897000D01*
X128820722Y-93882297D01*
X128822882Y-93867736D01*
X128826459Y-93853457D01*
X128831418Y-93839597D01*
X128837712Y-93826290D01*
X128845280Y-93813664D01*
X128854048Y-93801841D01*
X128863934Y-93790934D01*
X128874841Y-93781048D01*
X128886664Y-93772280D01*
X128899290Y-93764712D01*
X128912597Y-93758418D01*
X128926457Y-93753459D01*
X128940736Y-93749882D01*
X128955297Y-93747722D01*
X128970000Y-93747000D01*
X130620000Y-93747000D01*
X130634703Y-93747722D01*
X130634703Y-93747722D01*
G37*
D15*
X129795000Y-94047000D03*
D12*
G36*
X130634703Y-95017722D02*
G01*
X130649264Y-95019882D01*
X130663543Y-95023459D01*
X130677403Y-95028418D01*
X130690710Y-95034712D01*
X130703336Y-95042280D01*
X130715159Y-95051048D01*
X130726066Y-95060934D01*
X130735952Y-95071841D01*
X130744720Y-95083664D01*
X130752288Y-95096290D01*
X130758582Y-95109597D01*
X130763541Y-95123457D01*
X130767118Y-95137736D01*
X130769278Y-95152297D01*
X130770000Y-95167000D01*
X130770000Y-95467000D01*
X130769278Y-95481703D01*
X130767118Y-95496264D01*
X130763541Y-95510543D01*
X130758582Y-95524403D01*
X130752288Y-95537710D01*
X130744720Y-95550336D01*
X130735952Y-95562159D01*
X130726066Y-95573066D01*
X130715159Y-95582952D01*
X130703336Y-95591720D01*
X130690710Y-95599288D01*
X130677403Y-95605582D01*
X130663543Y-95610541D01*
X130649264Y-95614118D01*
X130634703Y-95616278D01*
X130620000Y-95617000D01*
X128970000Y-95617000D01*
X128955297Y-95616278D01*
X128940736Y-95614118D01*
X128926457Y-95610541D01*
X128912597Y-95605582D01*
X128899290Y-95599288D01*
X128886664Y-95591720D01*
X128874841Y-95582952D01*
X128863934Y-95573066D01*
X128854048Y-95562159D01*
X128845280Y-95550336D01*
X128837712Y-95537710D01*
X128831418Y-95524403D01*
X128826459Y-95510543D01*
X128822882Y-95496264D01*
X128820722Y-95481703D01*
X128820000Y-95467000D01*
X128820000Y-95167000D01*
X128820722Y-95152297D01*
X128822882Y-95137736D01*
X128826459Y-95123457D01*
X128831418Y-95109597D01*
X128837712Y-95096290D01*
X128845280Y-95083664D01*
X128854048Y-95071841D01*
X128863934Y-95060934D01*
X128874841Y-95051048D01*
X128886664Y-95042280D01*
X128899290Y-95034712D01*
X128912597Y-95028418D01*
X128926457Y-95023459D01*
X128940736Y-95019882D01*
X128955297Y-95017722D01*
X128970000Y-95017000D01*
X130620000Y-95017000D01*
X130634703Y-95017722D01*
X130634703Y-95017722D01*
G37*
D15*
X129795000Y-95317000D03*
D12*
G36*
X135584703Y-95017722D02*
G01*
X135599264Y-95019882D01*
X135613543Y-95023459D01*
X135627403Y-95028418D01*
X135640710Y-95034712D01*
X135653336Y-95042280D01*
X135665159Y-95051048D01*
X135676066Y-95060934D01*
X135685952Y-95071841D01*
X135694720Y-95083664D01*
X135702288Y-95096290D01*
X135708582Y-95109597D01*
X135713541Y-95123457D01*
X135717118Y-95137736D01*
X135719278Y-95152297D01*
X135720000Y-95167000D01*
X135720000Y-95467000D01*
X135719278Y-95481703D01*
X135717118Y-95496264D01*
X135713541Y-95510543D01*
X135708582Y-95524403D01*
X135702288Y-95537710D01*
X135694720Y-95550336D01*
X135685952Y-95562159D01*
X135676066Y-95573066D01*
X135665159Y-95582952D01*
X135653336Y-95591720D01*
X135640710Y-95599288D01*
X135627403Y-95605582D01*
X135613543Y-95610541D01*
X135599264Y-95614118D01*
X135584703Y-95616278D01*
X135570000Y-95617000D01*
X133920000Y-95617000D01*
X133905297Y-95616278D01*
X133890736Y-95614118D01*
X133876457Y-95610541D01*
X133862597Y-95605582D01*
X133849290Y-95599288D01*
X133836664Y-95591720D01*
X133824841Y-95582952D01*
X133813934Y-95573066D01*
X133804048Y-95562159D01*
X133795280Y-95550336D01*
X133787712Y-95537710D01*
X133781418Y-95524403D01*
X133776459Y-95510543D01*
X133772882Y-95496264D01*
X133770722Y-95481703D01*
X133770000Y-95467000D01*
X133770000Y-95167000D01*
X133770722Y-95152297D01*
X133772882Y-95137736D01*
X133776459Y-95123457D01*
X133781418Y-95109597D01*
X133787712Y-95096290D01*
X133795280Y-95083664D01*
X133804048Y-95071841D01*
X133813934Y-95060934D01*
X133824841Y-95051048D01*
X133836664Y-95042280D01*
X133849290Y-95034712D01*
X133862597Y-95028418D01*
X133876457Y-95023459D01*
X133890736Y-95019882D01*
X133905297Y-95017722D01*
X133920000Y-95017000D01*
X135570000Y-95017000D01*
X135584703Y-95017722D01*
X135584703Y-95017722D01*
G37*
D15*
X134745000Y-95317000D03*
D12*
G36*
X135584703Y-93747722D02*
G01*
X135599264Y-93749882D01*
X135613543Y-93753459D01*
X135627403Y-93758418D01*
X135640710Y-93764712D01*
X135653336Y-93772280D01*
X135665159Y-93781048D01*
X135676066Y-93790934D01*
X135685952Y-93801841D01*
X135694720Y-93813664D01*
X135702288Y-93826290D01*
X135708582Y-93839597D01*
X135713541Y-93853457D01*
X135717118Y-93867736D01*
X135719278Y-93882297D01*
X135720000Y-93897000D01*
X135720000Y-94197000D01*
X135719278Y-94211703D01*
X135717118Y-94226264D01*
X135713541Y-94240543D01*
X135708582Y-94254403D01*
X135702288Y-94267710D01*
X135694720Y-94280336D01*
X135685952Y-94292159D01*
X135676066Y-94303066D01*
X135665159Y-94312952D01*
X135653336Y-94321720D01*
X135640710Y-94329288D01*
X135627403Y-94335582D01*
X135613543Y-94340541D01*
X135599264Y-94344118D01*
X135584703Y-94346278D01*
X135570000Y-94347000D01*
X133920000Y-94347000D01*
X133905297Y-94346278D01*
X133890736Y-94344118D01*
X133876457Y-94340541D01*
X133862597Y-94335582D01*
X133849290Y-94329288D01*
X133836664Y-94321720D01*
X133824841Y-94312952D01*
X133813934Y-94303066D01*
X133804048Y-94292159D01*
X133795280Y-94280336D01*
X133787712Y-94267710D01*
X133781418Y-94254403D01*
X133776459Y-94240543D01*
X133772882Y-94226264D01*
X133770722Y-94211703D01*
X133770000Y-94197000D01*
X133770000Y-93897000D01*
X133770722Y-93882297D01*
X133772882Y-93867736D01*
X133776459Y-93853457D01*
X133781418Y-93839597D01*
X133787712Y-93826290D01*
X133795280Y-93813664D01*
X133804048Y-93801841D01*
X133813934Y-93790934D01*
X133824841Y-93781048D01*
X133836664Y-93772280D01*
X133849290Y-93764712D01*
X133862597Y-93758418D01*
X133876457Y-93753459D01*
X133890736Y-93749882D01*
X133905297Y-93747722D01*
X133920000Y-93747000D01*
X135570000Y-93747000D01*
X135584703Y-93747722D01*
X135584703Y-93747722D01*
G37*
D15*
X134745000Y-94047000D03*
D12*
G36*
X135584703Y-92477722D02*
G01*
X135599264Y-92479882D01*
X135613543Y-92483459D01*
X135627403Y-92488418D01*
X135640710Y-92494712D01*
X135653336Y-92502280D01*
X135665159Y-92511048D01*
X135676066Y-92520934D01*
X135685952Y-92531841D01*
X135694720Y-92543664D01*
X135702288Y-92556290D01*
X135708582Y-92569597D01*
X135713541Y-92583457D01*
X135717118Y-92597736D01*
X135719278Y-92612297D01*
X135720000Y-92627000D01*
X135720000Y-92927000D01*
X135719278Y-92941703D01*
X135717118Y-92956264D01*
X135713541Y-92970543D01*
X135708582Y-92984403D01*
X135702288Y-92997710D01*
X135694720Y-93010336D01*
X135685952Y-93022159D01*
X135676066Y-93033066D01*
X135665159Y-93042952D01*
X135653336Y-93051720D01*
X135640710Y-93059288D01*
X135627403Y-93065582D01*
X135613543Y-93070541D01*
X135599264Y-93074118D01*
X135584703Y-93076278D01*
X135570000Y-93077000D01*
X133920000Y-93077000D01*
X133905297Y-93076278D01*
X133890736Y-93074118D01*
X133876457Y-93070541D01*
X133862597Y-93065582D01*
X133849290Y-93059288D01*
X133836664Y-93051720D01*
X133824841Y-93042952D01*
X133813934Y-93033066D01*
X133804048Y-93022159D01*
X133795280Y-93010336D01*
X133787712Y-92997710D01*
X133781418Y-92984403D01*
X133776459Y-92970543D01*
X133772882Y-92956264D01*
X133770722Y-92941703D01*
X133770000Y-92927000D01*
X133770000Y-92627000D01*
X133770722Y-92612297D01*
X133772882Y-92597736D01*
X133776459Y-92583457D01*
X133781418Y-92569597D01*
X133787712Y-92556290D01*
X133795280Y-92543664D01*
X133804048Y-92531841D01*
X133813934Y-92520934D01*
X133824841Y-92511048D01*
X133836664Y-92502280D01*
X133849290Y-92494712D01*
X133862597Y-92488418D01*
X133876457Y-92483459D01*
X133890736Y-92479882D01*
X133905297Y-92477722D01*
X133920000Y-92477000D01*
X135570000Y-92477000D01*
X135584703Y-92477722D01*
X135584703Y-92477722D01*
G37*
D15*
X134745000Y-92777000D03*
D12*
G36*
X135584703Y-91207722D02*
G01*
X135599264Y-91209882D01*
X135613543Y-91213459D01*
X135627403Y-91218418D01*
X135640710Y-91224712D01*
X135653336Y-91232280D01*
X135665159Y-91241048D01*
X135676066Y-91250934D01*
X135685952Y-91261841D01*
X135694720Y-91273664D01*
X135702288Y-91286290D01*
X135708582Y-91299597D01*
X135713541Y-91313457D01*
X135717118Y-91327736D01*
X135719278Y-91342297D01*
X135720000Y-91357000D01*
X135720000Y-91657000D01*
X135719278Y-91671703D01*
X135717118Y-91686264D01*
X135713541Y-91700543D01*
X135708582Y-91714403D01*
X135702288Y-91727710D01*
X135694720Y-91740336D01*
X135685952Y-91752159D01*
X135676066Y-91763066D01*
X135665159Y-91772952D01*
X135653336Y-91781720D01*
X135640710Y-91789288D01*
X135627403Y-91795582D01*
X135613543Y-91800541D01*
X135599264Y-91804118D01*
X135584703Y-91806278D01*
X135570000Y-91807000D01*
X133920000Y-91807000D01*
X133905297Y-91806278D01*
X133890736Y-91804118D01*
X133876457Y-91800541D01*
X133862597Y-91795582D01*
X133849290Y-91789288D01*
X133836664Y-91781720D01*
X133824841Y-91772952D01*
X133813934Y-91763066D01*
X133804048Y-91752159D01*
X133795280Y-91740336D01*
X133787712Y-91727710D01*
X133781418Y-91714403D01*
X133776459Y-91700543D01*
X133772882Y-91686264D01*
X133770722Y-91671703D01*
X133770000Y-91657000D01*
X133770000Y-91357000D01*
X133770722Y-91342297D01*
X133772882Y-91327736D01*
X133776459Y-91313457D01*
X133781418Y-91299597D01*
X133787712Y-91286290D01*
X133795280Y-91273664D01*
X133804048Y-91261841D01*
X133813934Y-91250934D01*
X133824841Y-91241048D01*
X133836664Y-91232280D01*
X133849290Y-91224712D01*
X133862597Y-91218418D01*
X133876457Y-91213459D01*
X133890736Y-91209882D01*
X133905297Y-91207722D01*
X133920000Y-91207000D01*
X135570000Y-91207000D01*
X135584703Y-91207722D01*
X135584703Y-91207722D01*
G37*
D15*
X134745000Y-91507000D03*
D12*
G36*
X135584703Y-89937722D02*
G01*
X135599264Y-89939882D01*
X135613543Y-89943459D01*
X135627403Y-89948418D01*
X135640710Y-89954712D01*
X135653336Y-89962280D01*
X135665159Y-89971048D01*
X135676066Y-89980934D01*
X135685952Y-89991841D01*
X135694720Y-90003664D01*
X135702288Y-90016290D01*
X135708582Y-90029597D01*
X135713541Y-90043457D01*
X135717118Y-90057736D01*
X135719278Y-90072297D01*
X135720000Y-90087000D01*
X135720000Y-90387000D01*
X135719278Y-90401703D01*
X135717118Y-90416264D01*
X135713541Y-90430543D01*
X135708582Y-90444403D01*
X135702288Y-90457710D01*
X135694720Y-90470336D01*
X135685952Y-90482159D01*
X135676066Y-90493066D01*
X135665159Y-90502952D01*
X135653336Y-90511720D01*
X135640710Y-90519288D01*
X135627403Y-90525582D01*
X135613543Y-90530541D01*
X135599264Y-90534118D01*
X135584703Y-90536278D01*
X135570000Y-90537000D01*
X133920000Y-90537000D01*
X133905297Y-90536278D01*
X133890736Y-90534118D01*
X133876457Y-90530541D01*
X133862597Y-90525582D01*
X133849290Y-90519288D01*
X133836664Y-90511720D01*
X133824841Y-90502952D01*
X133813934Y-90493066D01*
X133804048Y-90482159D01*
X133795280Y-90470336D01*
X133787712Y-90457710D01*
X133781418Y-90444403D01*
X133776459Y-90430543D01*
X133772882Y-90416264D01*
X133770722Y-90401703D01*
X133770000Y-90387000D01*
X133770000Y-90087000D01*
X133770722Y-90072297D01*
X133772882Y-90057736D01*
X133776459Y-90043457D01*
X133781418Y-90029597D01*
X133787712Y-90016290D01*
X133795280Y-90003664D01*
X133804048Y-89991841D01*
X133813934Y-89980934D01*
X133824841Y-89971048D01*
X133836664Y-89962280D01*
X133849290Y-89954712D01*
X133862597Y-89948418D01*
X133876457Y-89943459D01*
X133890736Y-89939882D01*
X133905297Y-89937722D01*
X133920000Y-89937000D01*
X135570000Y-89937000D01*
X135584703Y-89937722D01*
X135584703Y-89937722D01*
G37*
D15*
X134745000Y-90237000D03*
D12*
G36*
X135584703Y-88667722D02*
G01*
X135599264Y-88669882D01*
X135613543Y-88673459D01*
X135627403Y-88678418D01*
X135640710Y-88684712D01*
X135653336Y-88692280D01*
X135665159Y-88701048D01*
X135676066Y-88710934D01*
X135685952Y-88721841D01*
X135694720Y-88733664D01*
X135702288Y-88746290D01*
X135708582Y-88759597D01*
X135713541Y-88773457D01*
X135717118Y-88787736D01*
X135719278Y-88802297D01*
X135720000Y-88817000D01*
X135720000Y-89117000D01*
X135719278Y-89131703D01*
X135717118Y-89146264D01*
X135713541Y-89160543D01*
X135708582Y-89174403D01*
X135702288Y-89187710D01*
X135694720Y-89200336D01*
X135685952Y-89212159D01*
X135676066Y-89223066D01*
X135665159Y-89232952D01*
X135653336Y-89241720D01*
X135640710Y-89249288D01*
X135627403Y-89255582D01*
X135613543Y-89260541D01*
X135599264Y-89264118D01*
X135584703Y-89266278D01*
X135570000Y-89267000D01*
X133920000Y-89267000D01*
X133905297Y-89266278D01*
X133890736Y-89264118D01*
X133876457Y-89260541D01*
X133862597Y-89255582D01*
X133849290Y-89249288D01*
X133836664Y-89241720D01*
X133824841Y-89232952D01*
X133813934Y-89223066D01*
X133804048Y-89212159D01*
X133795280Y-89200336D01*
X133787712Y-89187710D01*
X133781418Y-89174403D01*
X133776459Y-89160543D01*
X133772882Y-89146264D01*
X133770722Y-89131703D01*
X133770000Y-89117000D01*
X133770000Y-88817000D01*
X133770722Y-88802297D01*
X133772882Y-88787736D01*
X133776459Y-88773457D01*
X133781418Y-88759597D01*
X133787712Y-88746290D01*
X133795280Y-88733664D01*
X133804048Y-88721841D01*
X133813934Y-88710934D01*
X133824841Y-88701048D01*
X133836664Y-88692280D01*
X133849290Y-88684712D01*
X133862597Y-88678418D01*
X133876457Y-88673459D01*
X133890736Y-88669882D01*
X133905297Y-88667722D01*
X133920000Y-88667000D01*
X135570000Y-88667000D01*
X135584703Y-88667722D01*
X135584703Y-88667722D01*
G37*
D15*
X134745000Y-88967000D03*
D12*
G36*
X135584703Y-87397722D02*
G01*
X135599264Y-87399882D01*
X135613543Y-87403459D01*
X135627403Y-87408418D01*
X135640710Y-87414712D01*
X135653336Y-87422280D01*
X135665159Y-87431048D01*
X135676066Y-87440934D01*
X135685952Y-87451841D01*
X135694720Y-87463664D01*
X135702288Y-87476290D01*
X135708582Y-87489597D01*
X135713541Y-87503457D01*
X135717118Y-87517736D01*
X135719278Y-87532297D01*
X135720000Y-87547000D01*
X135720000Y-87847000D01*
X135719278Y-87861703D01*
X135717118Y-87876264D01*
X135713541Y-87890543D01*
X135708582Y-87904403D01*
X135702288Y-87917710D01*
X135694720Y-87930336D01*
X135685952Y-87942159D01*
X135676066Y-87953066D01*
X135665159Y-87962952D01*
X135653336Y-87971720D01*
X135640710Y-87979288D01*
X135627403Y-87985582D01*
X135613543Y-87990541D01*
X135599264Y-87994118D01*
X135584703Y-87996278D01*
X135570000Y-87997000D01*
X133920000Y-87997000D01*
X133905297Y-87996278D01*
X133890736Y-87994118D01*
X133876457Y-87990541D01*
X133862597Y-87985582D01*
X133849290Y-87979288D01*
X133836664Y-87971720D01*
X133824841Y-87962952D01*
X133813934Y-87953066D01*
X133804048Y-87942159D01*
X133795280Y-87930336D01*
X133787712Y-87917710D01*
X133781418Y-87904403D01*
X133776459Y-87890543D01*
X133772882Y-87876264D01*
X133770722Y-87861703D01*
X133770000Y-87847000D01*
X133770000Y-87547000D01*
X133770722Y-87532297D01*
X133772882Y-87517736D01*
X133776459Y-87503457D01*
X133781418Y-87489597D01*
X133787712Y-87476290D01*
X133795280Y-87463664D01*
X133804048Y-87451841D01*
X133813934Y-87440934D01*
X133824841Y-87431048D01*
X133836664Y-87422280D01*
X133849290Y-87414712D01*
X133862597Y-87408418D01*
X133876457Y-87403459D01*
X133890736Y-87399882D01*
X133905297Y-87397722D01*
X133920000Y-87397000D01*
X135570000Y-87397000D01*
X135584703Y-87397722D01*
X135584703Y-87397722D01*
G37*
D15*
X134745000Y-87697000D03*
D16*
X131371504Y-87697000D03*
X132969000Y-87706200D03*
X128117600Y-91516200D03*
X132969000Y-88950800D03*
X136778500Y-89475000D03*
D17*
X131241880Y-87697000D02*
X129795000Y-87697000D01*
X131371504Y-87697000D02*
X131241880Y-87697000D01*
X130965600Y-85538000D02*
X131067200Y-85639600D01*
D18*
X130615800Y-85665000D02*
X130666600Y-85614200D01*
X127317000Y-85665000D02*
X130615800Y-85665000D01*
D17*
X130768200Y-86589200D02*
X130768200Y-85614200D01*
X130768200Y-86723800D02*
X130768200Y-86589200D01*
X129795000Y-87697000D02*
X130768200Y-86723800D01*
X132978200Y-87697000D02*
X132969000Y-87706200D01*
X134745000Y-87697000D02*
X132978200Y-87697000D01*
D18*
X139175300Y-85614200D02*
X139191500Y-85598000D01*
X133179100Y-85614200D02*
X139175300Y-85614200D01*
D17*
X133743200Y-86695200D02*
X134745000Y-87697000D01*
X133743200Y-85614200D02*
X133743200Y-86695200D01*
X128126800Y-91507000D02*
X128117600Y-91516200D01*
X129795000Y-91507000D02*
X128126800Y-91507000D01*
X134728800Y-88950800D02*
X134745000Y-88967000D01*
X132969000Y-88950800D02*
X134728800Y-88950800D01*
X136016500Y-90237000D02*
X136378501Y-89874999D01*
X136378501Y-89874999D02*
X136778500Y-89475000D01*
X134745000Y-90237000D02*
X136016500Y-90237000D01*
X137032500Y-92777000D02*
X139191500Y-90618000D01*
X134745000Y-92777000D02*
X137032500Y-92777000D01*
X137921500Y-94047000D02*
X139191500Y-92777000D01*
X134745000Y-94047000D02*
X137921500Y-94047000D01*
X137858000Y-94936000D02*
X139191500Y-94936000D01*
X134745000Y-95317000D02*
X137477000Y-95317000D01*
X137477000Y-95317000D02*
X137858000Y-94936000D01*
X136270500Y-91380000D02*
X139191500Y-88459000D01*
X136143500Y-91507000D02*
X136270500Y-91380000D01*
X134745000Y-91507000D02*
X136143500Y-91507000D01*
X127317000Y-94047000D02*
X127317000Y-94936000D01*
X129795000Y-92777000D02*
X128587000Y-92777000D01*
X128587000Y-92777000D02*
X127317000Y-94047000D01*
M02*
